<mxfile host="65bd71144e">
    <diagram id="mA9TwBRVwYMheTiAssp3" name="Arquitetura em Camadas">
        <mxGraphModel dx="1728" dy="944" grid="1" gridSize="10" guides="1" tooltips="1" connect="1" arrows="1" fold="1" page="1" pageScale="1" pageWidth="850" pageHeight="1100" math="0" shadow="0">
            <root>
                <mxCell id="0"/>
                <mxCell id="1" parent="0"/>
                <mxCell id="2" value="ecommerce-node-api (back-end)" style="verticalAlign=top;align=left;spacingTop=8;spacingLeft=2;spacingRight=12;shape=cube;size=10;direction=south;fontStyle=4;html=1;strokeWidth=2;" vertex="1" parent="1">
                    <mxGeometry x="90" y="350" width="660" height="540" as="geometry"/>
                </mxCell>
                <mxCell id="3" value="ecommerce-web-app (front-end)" style="verticalAlign=top;align=left;spacingTop=8;spacingLeft=2;spacingRight=12;shape=cube;size=10;direction=south;fontStyle=4;html=1;strokeWidth=2;" vertex="1" parent="1">
                    <mxGeometry x="90" y="120" width="660" height="190" as="geometry"/>
                </mxCell>
                <mxCell id="4" value="Database (Relacional)" style="shape=cylinder3;whiteSpace=wrap;html=1;boundedLbl=1;backgroundOutline=1;size=15;strokeWidth=2;" vertex="1" parent="1">
                    <mxGeometry x="95" y="940" width="640" height="120" as="geometry"/>
                </mxCell>
                <mxCell id="5" value="" style="rounded=1;whiteSpace=wrap;html=1;strokeWidth=2;fillColor=#FF3333;" vertex="1" parent="1">
                    <mxGeometry x="290" y="570" width="420" height="130" as="geometry"/>
                </mxCell>
                <mxCell id="31" style="edgeStyle=none;html=1;exitX=0.5;exitY=1;exitDx=0;exitDy=0;entryX=0.25;entryY=0;entryDx=0;entryDy=0;dashed=1;" edge="1" parent="1" source="8" target="5">
                    <mxGeometry relative="1" as="geometry"/>
                </mxCell>
                <mxCell id="8" value="" style="rounded=1;whiteSpace=wrap;html=1;strokeWidth=2;fillColor=#00CC66;" vertex="1" parent="1">
                    <mxGeometry x="120" y="410" width="590" height="130" as="geometry"/>
                </mxCell>
                <mxCell id="23" style="edgeStyle=none;html=1;exitX=0.25;exitY=0;exitDx=0;exitDy=0;entryX=0.25;entryY=1;entryDx=0;entryDy=0;dashed=1;" edge="1" parent="1" source="9" target="8">
                    <mxGeometry relative="1" as="geometry"/>
                </mxCell>
                <mxCell id="30" style="edgeStyle=none;html=1;exitX=0.5;exitY=0;exitDx=0;exitDy=0;entryX=0.25;entryY=1;entryDx=0;entryDy=0;dashed=1;" edge="1" parent="1" source="9" target="5">
                    <mxGeometry relative="1" as="geometry"/>
                </mxCell>
                <mxCell id="9" value="" style="rounded=1;whiteSpace=wrap;html=1;strokeWidth=2;fillColor=#004C99;" vertex="1" parent="1">
                    <mxGeometry x="120" y="730" width="590" height="130" as="geometry"/>
                </mxCell>
                <mxCell id="12" value="" style="rounded=1;whiteSpace=wrap;html=1;strokeWidth=2;fillColor=#CCCC00;" vertex="1" parent="1">
                    <mxGeometry x="210" y="185" width="430" height="60" as="geometry"/>
                </mxCell>
                <mxCell id="13" value="Camada de Aplicação" style="text;html=1;strokeColor=none;fillColor=none;align=center;verticalAlign=middle;whiteSpace=wrap;rounded=0;strokeWidth=2;" vertex="1" parent="1">
                    <mxGeometry x="160" y="460" width="120" height="30" as="geometry"/>
                </mxCell>
                <mxCell id="14" value="Camada de Domínio" style="text;html=1;strokeColor=none;fillColor=none;align=center;verticalAlign=middle;whiteSpace=wrap;rounded=0;strokeWidth=2;" vertex="1" parent="1">
                    <mxGeometry x="305" y="620" width="120" height="30" as="geometry"/>
                </mxCell>
                <mxCell id="15" value="Camada de Infraestrutura" style="text;html=1;strokeColor=none;fillColor=none;align=center;verticalAlign=middle;whiteSpace=wrap;rounded=0;strokeWidth=2;" vertex="1" parent="1">
                    <mxGeometry x="145" y="780" width="150" height="30" as="geometry"/>
                </mxCell>
                <mxCell id="16" value="Camada de Apresentação" style="text;html=1;strokeColor=none;fillColor=none;align=center;verticalAlign=middle;whiteSpace=wrap;rounded=0;strokeWidth=2;" vertex="1" parent="1">
                    <mxGeometry x="220" y="185" width="150" height="30" as="geometry"/>
                </mxCell>
                <mxCell id="24" value="Módulo/Subdomínio" style="shape=umlFrame;whiteSpace=wrap;html=1;strokeWidth=2;fillColor=#CC0066;dashed=1;width=175;height=25;" vertex="1" parent="1">
                    <mxGeometry x="505" y="367.5" width="205" height="505" as="geometry"/>
                </mxCell>
                <mxCell id="25" value="entity" style="rounded=0;whiteSpace=wrap;html=1;dashed=1;strokeWidth=2;fillColor=#CC00CC;" vertex="1" parent="1">
                    <mxGeometry x="530" y="580" width="70" height="30" as="geometry"/>
                </mxCell>
                <mxCell id="26" value="types" style="rounded=0;whiteSpace=wrap;html=1;dashed=1;strokeWidth=2;fillColor=#CC00CC;" vertex="1" parent="1">
                    <mxGeometry x="530" y="650" width="70" height="30" as="geometry"/>
                </mxCell>
                <mxCell id="27" value="exception" style="rounded=0;whiteSpace=wrap;html=1;dashed=1;strokeWidth=2;fillColor=#CC00CC;" vertex="1" parent="1">
                    <mxGeometry x="620" y="580" width="70" height="30" as="geometry"/>
                </mxCell>
                <mxCell id="28" value="spec" style="rounded=0;whiteSpace=wrap;html=1;dashed=1;strokeWidth=2;fillColor=#CC00CC;" vertex="1" parent="1">
                    <mxGeometry x="620" y="650" width="70" height="30" as="geometry"/>
                </mxCell>
                <mxCell id="29" value="map" style="rounded=0;whiteSpace=wrap;html=1;dashed=1;strokeWidth=2;fillColor=#CC00CC;" vertex="1" parent="1">
                    <mxGeometry x="530" y="740" width="70" height="30" as="geometry"/>
                </mxCell>
            </root>
        </mxGraphModel>
    </diagram>
</mxfile>